<svg width="106" height="15" viewBox="0 0 106 15" fill="none" xmlns="http://www.w3.org/2000/svg">
<path d="M2.34 10.1V7.98005H8.26C8.96667 7.98005 9.52667 7.79338 9.94 7.42005C10.3533 7.03338 10.56 6.50005 10.56 5.82005C10.56 5.11338 10.3533 4.57338 9.94 4.20005C9.52667 3.82671 8.96667 3.64005 8.26 3.64005H2.66V14.3H5.96046e-08V1.36005H8.02C8.74 1.36005 9.41333 1.44672 10.04 1.62005C10.68 1.79338 11.2333 2.06005 11.7 2.42005C12.18 2.78005 12.5533 3.24005 12.82 3.80005C13.0867 4.36005 13.22 5.03338 13.22 5.82005C13.22 6.59338 13.0867 7.25338 12.82 7.80005C12.5533 8.34672 12.18 8.79338 11.7 9.14005C11.2333 9.47338 10.68 9.72005 10.04 9.88005C9.41333 10.0267 8.74 10.1 8.02 10.1H2.34ZM19.8916 14.52C18.9049 14.52 18.0049 14.3067 17.1916 13.88C16.3916 13.44 15.7516 12.8334 15.2716 12.06C14.8049 11.2734 14.5716 10.3667 14.5716 9.34005C14.5716 8.28672 14.8116 7.37338 15.2916 6.60005C15.7716 5.82672 16.4182 5.22672 17.2316 4.80005C18.0582 4.36005 18.9916 4.14005 20.0316 4.14005C21.1782 4.14005 22.0982 4.37338 22.7916 4.84005C23.4982 5.29338 24.0116 5.91338 24.3316 6.70005C24.6516 7.48672 24.8116 8.36672 24.8116 9.34005C24.8116 9.92672 24.7182 10.5267 24.5316 11.14C24.3449 11.74 24.0582 12.3 23.6716 12.82C23.2849 13.3267 22.7782 13.74 22.1516 14.06C21.5249 14.3667 20.7716 14.52 19.8916 14.52ZM20.7316 12.52C21.5182 12.52 22.1982 12.3867 22.7716 12.12C23.3449 11.8534 23.7849 11.48 24.0916 11C24.3982 10.52 24.5516 9.96672 24.5516 9.34005C24.5516 8.66005 24.3916 8.08672 24.0716 7.62005C23.7649 7.14005 23.3249 6.78005 22.7516 6.54005C22.1916 6.28672 21.5182 6.16005 20.7316 6.16005C19.6249 6.16005 18.7649 6.45338 18.1516 7.04005C17.5382 7.61338 17.2316 8.38005 17.2316 9.34005C17.2316 9.98005 17.3782 10.54 17.6716 11.02C17.9649 11.4867 18.3716 11.8534 18.8916 12.12C19.4249 12.3867 20.0382 12.52 20.7316 12.52ZM24.5516 4.36005H27.1516V14.3H24.7316C24.7316 14.3 24.7116 14.1734 24.6716 13.92C24.6449 13.6534 24.6182 13.32 24.5916 12.92C24.5649 12.52 24.5516 12.1267 24.5516 11.74V4.36005ZM28.8047 4.36005H36.5247V6.38005H28.8047V4.36005ZM31.3647 1.64005H33.9647V14.3H31.3647V1.64005ZM41.1566 4.81606e-05V2.28005H38.1366V4.81606e-05H41.1566ZM38.3366 4.36005H40.9366V14.3H38.3366V4.36005ZM43.5281 4.36005H46.1281V14.3H43.5281V4.36005ZM50.7481 4.14005C51.3615 4.14005 51.9281 4.22005 52.4481 4.38005C52.9681 4.54005 53.4215 4.78671 53.8081 5.12005C54.1948 5.45338 54.4948 5.88005 54.7081 6.40005C54.9215 6.90672 55.0281 7.51338 55.0281 8.22005V14.3H52.4281V8.68005C52.4281 7.84005 52.2215 7.22672 51.8081 6.84005C51.4081 6.44005 50.7481 6.24005 49.8281 6.24005C49.1348 6.24005 48.5081 6.37338 47.9481 6.64005C47.3881 6.90672 46.9348 7.24672 46.5881 7.66005C46.2415 8.06005 46.0415 8.48005 45.9881 8.92005L45.9681 7.90005C46.0348 7.43338 46.1881 6.98005 46.4281 6.54005C46.6681 6.10005 46.9881 5.70005 47.3881 5.34005C47.8015 4.96672 48.2881 4.67338 48.8481 4.46005C49.4081 4.24672 50.0415 4.14005 50.7481 4.14005ZM56.9953 11H59.3953C59.542 11.4534 59.842 11.8267 60.2953 12.12C60.762 12.4 61.3686 12.54 62.1153 12.54C62.622 12.54 63.0153 12.4934 63.2953 12.4C63.5753 12.3067 63.7686 12.1734 63.8753 12C63.982 11.8134 64.0353 11.6067 64.0353 11.38C64.0353 11.1 63.9486 10.8867 63.7753 10.74C63.602 10.58 63.3353 10.4534 62.9753 10.36C62.6153 10.2667 62.1553 10.18 61.5953 10.1C61.0353 10.0067 60.4953 9.89338 59.9753 9.76005C59.4553 9.62672 58.9953 9.45338 58.5953 9.24005C58.1953 9.01338 57.8753 8.73338 57.6353 8.40005C57.4086 8.05338 57.2953 7.63338 57.2953 7.14005C57.2953 6.66005 57.4086 6.23338 57.6353 5.86005C57.8753 5.48672 58.202 5.17338 58.6153 4.92005C59.042 4.66671 59.5353 4.47338 60.0953 4.34005C60.6686 4.20672 61.282 4.14005 61.9353 4.14005C62.922 4.14005 63.742 4.28672 64.3953 4.58005C65.0486 4.86005 65.5353 5.26005 65.8553 5.78005C66.1886 6.28672 66.3553 6.87338 66.3553 7.54005H64.0553C63.9486 7.04671 63.7353 6.69338 63.4153 6.48005C63.0953 6.25338 62.602 6.14005 61.9353 6.14005C61.282 6.14005 60.7886 6.24005 60.4553 6.44005C60.122 6.64005 59.9553 6.91338 59.9553 7.26005C59.9553 7.54005 60.0553 7.76005 60.2553 7.92005C60.4686 8.06672 60.7753 8.18671 61.1753 8.28005C61.5886 8.37338 62.102 8.47338 62.7153 8.58005C63.2353 8.68672 63.7286 8.80672 64.1953 8.94005C64.6753 9.07338 65.102 9.24672 65.4753 9.46005C65.8486 9.66005 66.142 9.93338 66.3553 10.28C66.582 10.6134 66.6953 11.04 66.6953 11.56C66.6953 12.2 66.5086 12.74 66.1353 13.18C65.7753 13.62 65.2553 13.96 64.5753 14.2C63.8953 14.4267 63.082 14.54 62.1353 14.54C61.2953 14.54 60.5686 14.4534 59.9553 14.28C59.3553 14.0934 58.8553 13.86 58.4553 13.58C58.0553 13.2867 57.742 12.98 57.5153 12.66C57.302 12.3267 57.1553 12.0134 57.0753 11.72C56.9953 11.4267 56.9686 11.1867 56.9953 11Z" fill="black"/>
<path d="M98.5621 1.83455C98.8843 0.963935 100.116 0.963936 100.438 1.83455L101.501 4.70808C101.602 4.9818 101.818 5.19761 102.092 5.2989L104.965 6.3622C105.836 6.68436 105.836 7.91574 104.965 8.2379L102.092 9.3012C101.818 9.40249 101.602 9.6183 101.501 9.89202L100.438 12.7655C100.116 13.6362 98.8843 13.6362 98.5621 12.7655L97.4988 9.89202C97.3976 9.6183 97.1818 9.40249 96.908 9.3012L94.0345 8.2379C93.1639 7.91574 93.1639 6.68436 94.0345 6.3622L96.908 5.2989C97.1818 5.19761 97.3976 4.9818 97.4988 4.70808L98.5621 1.83455Z" fill="black"/>
</svg>
